<svg version="1.2" baseProfile="tiny-ps" xmlns="http://www.w3.org/2000/svg" viewBox="0 0 504 504" width="504" height="504">
	<title>tomato-svgrepo-com-svg</title>
	<defs>
		<linearGradient id="grd1" gradientUnits="userSpaceOnUse"  x1="252" y1="504" x2="252" y2="44.8">
			<stop offset="0" stop-color="#1155a3"  />
			<stop offset="1" stop-color="#1564c0"  />
		</linearGradient>
		<linearGradient id="grd2" gradientUnits="userSpaceOnUse"  x1="252" y1="420.8" x2="252" y2="128">
			<stop offset="0" stop-color="#354499"  />
			<stop offset="1" stop-color="#3e51b5"  />
		</linearGradient>
		<linearGradient id="grd3" gradientUnits="userSpaceOnUse"  x1="134.541" y1="291.969" x2="275.4" y2="291.969">
			<stop offset="0.83" stop-color="#42a5f5"  />
			<stop offset="0.83" stop-color="#2196f3"  />
		</linearGradient>
	</defs>
	<style>
		tspan { white-space:pre }
		.shp0 { fill: #009688 } 
		.shp1 { fill: #00897b } 
		.shp2 { fill: url(#grd1) } 
		.shp3 { fill: #3949ab } 
		.shp4 { fill: #42a5f5 } 
		.shp5 { fill: #2196f3 } 
		.shp6 { fill: url(#grd2) } 
		.shp7 { fill: #283593 } 
		.shp8 { fill: #cddc39 } 
		.shp9 { fill: #c0ca33 } 
		.shp10 { fill: url(#grd3) } 
	</style>
	<path id="Layer" class="shp0" d="M235.2 66.4L208 75.2L185.6 33.6L201.6 22.4L210.4 29.6L206.4 5.6L243.2 0L245.6 19.2L252 13.6L252 66.4L235.2 66.4Z" />
	<path id="Layer" class="shp1" d="M268.8 66.4L296 75.2L318.4 33.6L302.4 22.4L293.6 29.6L297.6 5.6L260.8 0L258.4 19.2L252 13.6L252 66.4L268.8 66.4Z" />
	<path id="Layer" class="shp2" d="M252 504C125.03 504 22.4 401.37 22.4 274.4C22.4 147.43 125.03 44.8 252 44.8C378.97 44.8 481.6 147.43 481.6 274.4C481.6 401.37 378.97 504 252 504Z" />
	<path id="Layer" class="shp3" d="M252 44.8C378.4 44.8 481.6 147.2 481.6 274.4C481.6 400.8 379.2 504 252 504" />
	<path id="Layer" class="shp4" d="M252 456.8C151.13 456.8 69.6 375.27 69.6 274.4C69.6 173.53 151.13 92 252 92C352.87 92 434.4 173.53 434.4 274.4C434.4 375.27 352.87 456.8 252 456.8Z" />
	<path id="Layer" class="shp5" d="M252 92C352.8 92 434.4 173.6 434.4 274.4C434.4 375.2 352.8 456.8 252 456.8" />
	<path id="Layer" class="shp6" d="M252 420.8C171.04 420.8 105.6 355.36 105.6 274.4C105.6 193.44 171.04 128 252 128C332.96 128 398.4 193.44 398.4 274.4C398.4 355.36 332.96 420.8 252 420.8Z" />
	<path id="Layer" class="shp7" d="M252 128C332.8 128 398.4 193.6 398.4 274.4C398.4 355.2 332.8 420.8 252 420.8" />
	<g id="Layer">
		<path id="Layer" class="shp8" d="M169.6 205.6L169.6 205.6L197.6 220.8L189.6 188L189.6 188C188.8 188 188 185.6 187.2 184C182.4 177.6 173.6 177.6 168 181.6C161.6 186.4 160.8 195.2 165.6 201.6C166.4 203.2 168 204.8 169.6 205.6Z" />
		<path id="Layer" class="shp8" d="M149.6 255.2L149.6 255.2L182.4 254.4L159.2 232L159.2 232C157.6 230.4 156 229.6 154.4 228.8C147.2 225.6 139.2 229.6 136 236.8C133.6 244 136.8 252 144 255.2C145.6 254.4 147.2 255.2 149.6 255.2Z" />
		<path id="Layer" class="shp8" d="M158.4 312L158.4 312L182.4 289.6L149.6 288L149.6 288C148 288 145.6 288 144 288.8C136.8 291.2 132.8 299.2 136 306.4C138.4 313.6 146.4 317.6 153.6 314.4C155.2 314.4 156.8 313.6 158.4 312Z" />
		<path id="Layer" class="shp8" d="M189.6 358.4L189.6 358.4L197.6 327.2L169.6 343.2L169.6 343.2C168 344 166.4 345.6 164.8 347.2C160 353.6 161.6 362.4 167.2 366.4C173.6 371.2 182.4 369.6 186.4 364C188.8 362.4 189.6 360 189.6 358.4Z" />
		<path id="Layer" class="shp9" d="M334.4 205.6L334.4 205.6L306.4 220.8L314.4 188L314.4 188C315.2 188 316 185.6 316.8 184C321.6 177.6 330.4 177.6 336 181.6C342.4 186.4 343.2 195.2 338.4 201.6C337.6 203.2 336 204.8 334.4 205.6Z" />
		<path id="Layer" class="shp9" d="M354.4 255.2L354.4 255.2L321.6 254.4L344.8 232L344.8 232C346.4 230.4 348 229.6 349.6 228.8C356.8 225.6 364.8 229.6 368 236.8C370.4 244 367.2 252 360 255.2C358.4 254.4 356.8 255.2 354.4 255.2Z" />
		<path id="Layer" class="shp9" d="M345.6 312L345.6 312L321.6 289.6L354.4 288L354.4 288C356 288 358.4 288 360 288.8C367.2 291.2 371.2 299.2 368 306.4C365.6 313.6 357.6 317.6 350.4 314.4C348.8 314.4 347.2 313.6 345.6 312Z" />
		<path id="Layer" class="shp9" d="M314.4 358.4L314.4 358.4L306.4 327.2L334.4 343.2L334.4 343.2C336 344 337.6 345.6 339.2 347.2C344 353.6 342.4 362.4 336.8 366.4C330.4 371.2 321.6 369.6 317.6 364C315.2 362.4 314.4 360 314.4 358.4Z" />
	</g>
	<path id="Layer" class="shp10" d="M254.5 160.9C243.1 160.9 233.7 170.3 233.7 181.7L233.7 273.2L139 389.8C131.7 399.2 133.8 411.6 142.1 418.9C153.7 427.4 166 421 170.2 415.8L271.2 293C273.3 289.9 275.4 285.7 275.4 280.5L275.4 181.7C275.3 170.2 266 160.9 254.5 160.9Z" />
</svg>